<svg xmlns="http://www.w3.org/2000/svg" width="22.178" height="22.283" viewBox="0 0 22.178 22.283"><defs><style>.a{fill:#fff;}</style></defs><g transform="translate(-0.831)"><path class="a" d="M71.777,181.892h3.784a.946.946,0,0,0,0-1.892H71.777a.946.946,0,1,0,0,1.892Z" transform="translate(-65.585 -168.648)"/><path class="a" d="M22.732,20.668l-1.951-1.951a4.621,4.621,0,0,0-2.922-7.057V7.883a.946.946,0,0,0-.277-.669L10.644.277A.946.946,0,0,0,9.975,0h-8.2A.946.946,0,0,0,.831.946V19.865a.946.946,0,0,0,.946.946H16.913a4.6,4.6,0,0,0,2.531-.757l1.951,1.951a.946.946,0,0,0,1.338-1.338Zm-3.087-4.481a2.733,2.733,0,1,1-2.733-2.733A2.736,2.736,0,0,1,19.645,16.187ZM10.921,3.23l3.707,3.707H10.921Zm-8.2-1.338H9.029V7.883a.946.946,0,0,0,.946.946h5.991v2.83a4.638,4.638,0,0,0-3.557,3.476H6.192a.946.946,0,0,0,0,1.892h6.174a4.6,4.6,0,0,0,.819,1.892H2.723Z" transform="translate(0 0)"/></g></svg>