<svg xmlns="http://www.w3.org/2000/svg" width="20.193" height="22.283" viewBox="0 0 20.193 22.283"><defs><style>.a{fill:#fff;}</style></defs><g transform="translate(-23.998)"><g transform="translate(23.998)"><g transform="translate(0)"><path class="a" d="M91.9,281.351a.372.372,0,0,0-.372.372v8.546a.372.372,0,0,1-.372.372H87.44v-5.573a1.115,1.115,0,0,0-1.115-1.115H82.61a1.115,1.115,0,0,0-1.115,1.115v5.573H77.78a.372.372,0,0,1-.372-.372v-8.546a.372.372,0,1,0-.743,0v8.546a1.115,1.115,0,0,0,1.115,1.115H91.156a1.115,1.115,0,0,0,1.115-1.115v-8.546A.372.372,0,0,0,91.9,281.351Zm-5.2,9.289H82.238v-5.573a.372.372,0,0,1,.372-.372h3.716a.372.372,0,0,1,.372.372v5.573Z" transform="translate(-74.372 -269.1)"/><path class="a" d="M43.867,9.571,34.886.326a1.125,1.125,0,0,0-1.584,0l-8.98,9.246a1.147,1.147,0,0,0-.231,1.25,1.1,1.1,0,0,0,1.023.686h.127a1.1,1.1,0,0,0,.721-.277.523.523,0,0,0,.074-.059l8.059-8.3,8.065,8.306a.512.512,0,0,0,.069.055,1.106,1.106,0,0,0,.72.276h.127a1.1,1.1,0,0,0,1.024-.686A1.147,1.147,0,0,0,43.867,9.571Zm-.453.961a.368.368,0,0,1-.339.232h-.127a.359.359,0,0,1-.26-.111s-.007,0-.009-.006a.092.092,0,0,0-.009-.009L34.36,2.078l0,0,0-.006a.339.339,0,0,0-.058-.037.355.355,0,0,0-.062-.04.345.345,0,0,0-.07-.015.2.2,0,0,0-.138,0,.349.349,0,0,0-.07.015.36.36,0,0,0-.062.04.339.339,0,0,0-.058.037l0,0,0,0-8.311,8.56s0,.006-.008.009a.062.062,0,0,0-.01.007.359.359,0,0,1-.26.111h-.126a.368.368,0,0,1-.339-.232.4.4,0,0,1,.08-.443h0L33.834.844a.365.365,0,0,1,.518,0l8.983,9.245A.4.4,0,0,1,43.414,10.532Z" transform="translate(-23.998)"/><path class="a" d="M200.216,192.315a1.115,1.115,0,0,0,1.115-1.115v-2.6a1.115,1.115,0,0,0-1.115-1.115h-2.973a1.115,1.115,0,0,0-1.115,1.115v2.6a1.115,1.115,0,0,0,1.115,1.115Zm-3.344-1.115v-2.6a.372.372,0,0,1,.372-.372h2.973a.372.372,0,0,1,.372.372v2.6a.372.372,0,0,1-.372.372h-2.973A.372.372,0,0,1,196.872,191.2Z" transform="translate(-188.634 -179.321)"/><path class="a" d="M213.94,417.884h-.372a.372.372,0,0,0,0,.743h.372a.372.372,0,0,0,0-.743Z" transform="translate(-204.959 -399.688)"/></g></g></g></svg>