<svg xmlns="http://www.w3.org/2000/svg" width="24.952" height="25" viewBox="0 0 24.952 25"><defs><style>.a{fill:#fff;}</style></defs><g transform="translate(-0.5 0)"><path class="a" d="M25.166,21.8,22.8,17.7a.488.488,0,0,0-.616-.2l-.764-1.323a6.759,6.759,0,0,0-2.507-11.2V4.092a1.95,1.95,0,0,0-1.948-1.948H6.649A.16.16,0,0,1,6.5,2.053L5.834.636A1.117,1.117,0,0,0,4.829,0H1.612A1.113,1.113,0,0,0,.5,1.112V13.638a2.027,2.027,0,0,0,2.024,2.024h8.931a6.712,6.712,0,0,0,3.468,2.228,6.8,6.8,0,0,0,1.761.233,6.675,6.675,0,0,0,1.789-.245l.763,1.321a.488.488,0,0,0-.132.636l2.365,4.1a2.134,2.134,0,0,0,3.7-2.134ZM1.612.977H4.829a.136.136,0,0,1,.122.077l.516,1.091H1.477V1.112A.136.136,0,0,1,1.612.977ZM15.176,16.948a5.741,5.741,0,0,1-3.095-2.068v0c-.074-.1-.146-.2-.214-.3l-.013-.02c-.027-.041-.054-.083-.08-.125l-.021-.034q-.043-.07-.084-.14l0-.008a5.764,5.764,0,0,1-.776-2.976q0-.1.007-.208c0-.017,0-.034,0-.05a.488.488,0,0,0-.413-.458l-.05,0a.489.489,0,0,0-.513.463c0,.081-.007.161-.008.242,0,.025,0,.05,0,.076,0,.055,0,.111,0,.166,0,.031,0,.061,0,.092,0,.05,0,.1.006.149,0,.033,0,.066.007.1s.006.094.01.14.008.068.011.1.009.091.015.136.01.069.015.1.012.089.02.133.013.07.019.1.015.087.024.131.015.07.023.105.018.086.029.129.018.07.027.1.022.085.033.128.02.069.031.1.024.084.038.126.023.069.034.1.027.083.042.124.025.068.038.1.031.082.047.123.028.067.042.1.034.081.051.122.03.066.045.1.037.08.056.12.032.065.048.1.04.08.06.119l.052.1c.016.029.031.059.048.088H2.524a1.049,1.049,0,0,1-1.048-1.048V3.121H16.965a.972.972,0,0,1,.971.971v.622a6.682,6.682,0,0,0-4.182.544l0,0-.136.067-.025.012-.12.063-.032.017-.146.082a6.786,6.786,0,0,0-1.148.832l0,0q-.115.1-.225.212-.147.146-.286.3l-.064.073q-.09.1-.176.211a.488.488,0,1,0,.763.61,5.787,5.787,0,1,1,8.283,8.011l-.044.037-.057.047-.058.047-.046.036-.069.053L20.124,16l-.078.057-.035.025-.082.057-.039.026-.079.052-.056.035-.065.041-.124.074a5.836,5.836,0,0,1-1.024.466l-.016.006a5.746,5.746,0,0,1-3.351.106Zm4.362.537.064-.03.1-.05.1-.05.076-.04c.059-.032.118-.065.177-.1s.1-.061.154-.092l.023-.014.13-.082.021-.014.129-.087.02-.014.126-.09.005,0,.673,1.165-.192.111-1.064.614-.673-1.165h0l.129-.059Zm4.9,5.682a1.157,1.157,0,0,1-2.12.279l-2.121-3.674,2-1.157,2.121,3.674A1.15,1.15,0,0,1,24.436,23.166Zm0,0"/><path class="a" d="M243.857,141.391a4.744,4.744,0,1,0-2.212,2.883,4.716,4.716,0,0,0,2.212-2.883Zm-4.579,2.541a3.768,3.768,0,1,1,1.879-.5,3.773,3.773,0,0,1-1.879.5Zm0,0" transform="translate(-222.598 -128.803)"/><path class="a" d="M202.855,175.055a.488.488,0,0,0-.488.488h0a.488.488,0,1,0,.488-.49Zm0,0" transform="translate(-192.01 -166.507)"/></g></svg>