<svg xmlns="http://www.w3.org/2000/svg" width="23.283" height="23.283" viewBox="0 0 23.283 23.283"><defs><style>.a{fill:#fff;}</style></defs><path class="a" d="M22.084,9.054H19.906a.836.836,0,0,1-.592-1.428l1.54-1.54a1.2,1.2,0,0,0,0-1.7L18.891,2.428a1.228,1.228,0,0,0-1.7,0l-1.54,1.54a.836.836,0,0,1-1.428-.591V1.2A1.2,1.2,0,0,0,13.03,0H10.253a1.2,1.2,0,0,0-1.2,1.2V3.377a.836.836,0,0,1-1.428.591l-1.54-1.54a1.228,1.228,0,0,0-1.7,0L2.428,4.391a1.2,1.2,0,0,0,0,1.7l1.54,1.54a.836.836,0,0,1-.592,1.428H1.2a1.2,1.2,0,0,0-1.2,1.2v2.776a1.2,1.2,0,0,0,1.2,1.2H3.377a.836.836,0,0,1,.592,1.428L2.428,17.2a1.2,1.2,0,0,0,0,1.7l1.963,1.963a1.227,1.227,0,0,0,1.7,0l1.54-1.54a.836.836,0,0,1,1.428.592v2.178a1.2,1.2,0,0,0,1.2,1.2h2.776a1.2,1.2,0,0,0,1.2-1.2V19.906a.836.836,0,0,1,1.428-.592l1.54,1.54a1.228,1.228,0,0,0,1.7,0l1.963-1.963a1.2,1.2,0,0,0,0-1.7l-1.54-1.54a.836.836,0,0,1,.592-1.428h2.178a1.2,1.2,0,0,0,1.2-1.2V10.253A1.2,1.2,0,0,0,22.084,9.054Zm.336,3.975a.337.337,0,0,1-.336.336H19.906a1.7,1.7,0,0,0-1.2,2.9l1.54,1.54a.336.336,0,0,1,0,.476l-1.963,1.963a.336.336,0,0,1-.476,0l-1.54-1.54a1.7,1.7,0,0,0-2.9,1.2v2.178a.337.337,0,0,1-.336.336H10.253a.337.337,0,0,1-.336-.336V19.906a1.672,1.672,0,0,0-1.049-1.569,1.718,1.718,0,0,0-.661-.134,1.675,1.675,0,0,0-1.19.5l-1.54,1.54a.336.336,0,0,1-.476,0L3.038,18.281a.336.336,0,0,1,0-.476l1.54-1.54a1.7,1.7,0,0,0-1.2-2.9H1.2a.337.337,0,0,1-.336-.336V10.253A.337.337,0,0,1,1.2,9.917H3.377a1.7,1.7,0,0,0,1.2-2.9l-1.54-1.54a.336.336,0,0,1,0-.476L5,3.038a.336.336,0,0,1,.476,0l1.54,1.54a1.7,1.7,0,0,0,2.9-1.2V1.2a.337.337,0,0,1,.336-.336h2.776a.337.337,0,0,1,.337.336V3.377a1.7,1.7,0,0,0,2.9,1.2l1.54-1.54a.336.336,0,0,1,.476,0L20.245,5a.336.336,0,0,1,0,.476L18.7,7.017a1.7,1.7,0,0,0,1.2,2.9h2.178a.336.336,0,0,1,.336.336Z"/><path class="a" d="M21.88,18a3.88,3.88,0,1,0,3.88,3.88A3.885,3.885,0,0,0,21.88,18Zm0,6.9A3.018,3.018,0,1,1,24.9,21.88,3.022,3.022,0,0,1,21.88,24.9Z" transform="translate(-10.239 -10.239)"/></svg>